HIERARCHY
ROOT HipCenter
{
    OFFSET 0.0 0.0 -0.0
    CHANNELS 6 Xposition Yposition Zposition Zrotation Xrotation Yrotation
    JOINT Spine
    {
        OFFSET 0.0 0.12084240466356277 0.0
        CHANNELS 3 Zrotation Xrotation Yrotation
        JOINT ShoulderCenter
        {
            OFFSET 0.0 0.3346405625343323 0.0
            CHANNELS 3 Zrotation Xrotation Yrotation
            JOINT LeftShoulder
            {
                OFFSET 0.1905357837677002 0.0 0.0
                CHANNELS 3 Zrotation Xrotation Yrotation
                JOINT LeftElbow
                {
                    OFFSET 0.2975112199783325 0.0 0.0
                    CHANNELS 3 Zrotation Xrotation Yrotation
                    JOINT LeftWrist
                    {
                        OFFSET 0.2960708737373352 0.0 0.0
                        CHANNELS 3 Zrotation Xrotation Yrotation
                        JOINT LeftHand
                        {
                            OFFSET 0.04400279000401497 0.0 0.0
                            CHANNELS 3 Zrotation Xrotation Yrotation
                            End Site
                            {
                                OFFSET 0.017601115629076958 0.0 0.0
                            }
                        }
                    }
                }
            }
            JOINT RightShoulder
            {
                OFFSET -0.1905357837677002 0.0 0.0
                CHANNELS 3 Zrotation Xrotation Yrotation
                JOINT RightElbow
                {
                    OFFSET -0.2975112199783325 0.0 0.0
                    CHANNELS 3 Zrotation Xrotation Yrotation
                    JOINT RightWrist
                    {
                        OFFSET -0.2960708737373352 0.0 0.0
                        CHANNELS 3 Zrotation Xrotation Yrotation
                        JOINT RightHand
                        {
                            OFFSET -0.04400279000401497 0.0 0.0
                            CHANNELS 3 Zrotation Xrotation Yrotation
                            End Site
                            {
                                OFFSET -0.017601115629076958 0.0 0.0
                            }
                        }
                    }
                }
            }
            End Site
            {
                OFFSET 0.0 0.13385623693466187 0.0
            }
        }
    }
    JOINT LeftHip
    {
        OFFSET 0.13981956243515015 0.0 0.0
        CHANNELS 3 Zrotation Xrotation Yrotation
        JOINT LeftKnee
        {
            OFFSET 0.0 -0.4064851999282837 0.0
            CHANNELS 3 Zrotation Xrotation Yrotation
            JOINT LeftAnkle
            {
                OFFSET 0.0 -0.44766226410865784 0.0
                CHANNELS 3 Zrotation Xrotation Yrotation
                JOINT LeftFoot
                {
                    OFFSET 0.0 -0.10064632445573807 0.0
                    CHANNELS 3 Zrotation Xrotation Yrotation
                    End Site
                    {
                        OFFSET 0.0 0.0 0.040258534252643585
                    }
                }
            }
        }
    }
    JOINT RightHip
    {
        OFFSET -0.13981956243515015 0.0 0.0
        CHANNELS 3 Zrotation Xrotation Yrotation
        JOINT RightKnee
        {
            OFFSET 0.0 -0.4064851999282837 0.0
            CHANNELS 3 Zrotation Xrotation Yrotation
            JOINT RightAnkle
            {
                OFFSET 0.0 -0.44766226410865784 0.0
                CHANNELS 3 Zrotation Xrotation Yrotation
                JOINT RightFoot
                {
                    OFFSET 0.0 -0.10064632445573807 0.0
                    CHANNELS 3 Zrotation Xrotation Yrotation
                    End Site
                    {
                        OFFSET 0.0 0.0 0.040258534252643585
                    }
                }
            }
        }
    }
}
MOTION
Frames: 7
Frame Time: 0.03333333333333333
0.656000018119812 -0.07400000095367432 0.6690000295639038 10.008009846040174 44.560737518504766 -8.164172676028352 -0.9456872893102288 0.10272072020812657 0.009864175891068038 -2.4344435643424784e-07 4.855219289761491e-07 -0.30783715558320257 94.07090193491791 0.632128922211888 124.38358438050902 4.087094085425927e-06 5.044084353104347e-06 1.2250383314234525 4.40797248875374e-06 42.306188112561166 13.363835580960432 -3.180554681463516e-15 -3.180554681463516e-15 1.590277340731758e-15 -177.8598026700722 29.61179006421674 -81.88092636660616 5.688234626866324e-07 -1.4372508011616305e-06 -11.602030838061028 179.99999390819096 -55.027202999295156 140.92876076270588 3.975693351829396e-15 3.1805546814635164e-15 -5.565970692561154e-15 -177.40707729727671 -71.77047334079117 -129.0203536344825 88.62958636343227 40.3360139701822 -130.83455524187346 100.5438056603002 -54.08497324594269 147.90462785889693 -3.1805546814635168e-15 -8.827812596100317e-32 3.1805546814635168e-15 -139.75651200488795 -66.86005641553194 153.41358457328852 -89.35891395746631 18.425662368876974 156.64167362447085 -98.97809646960062 -19.66074480953935 -168.54408066687452 0.0 0.0 -1.5902773407317584e-15
0.6600000262260437 -0.09200000017881393 0.6679999828338623 10.42073277892919 43.176393439496245 -9.101733046938145 -1.3946110724738143 -0.16103907799464406 -0.015292859698732415 -2.1341894461563355e-07 -1.330433693857362e-06 -1.4923840603868253 -77.28643447311836 -10.171410033029506 37.8277364267315 3.4457013315795277e-05 -0.00013417160114059714 0.16921404730462303 179.99997938425358 -31.94554081936697 -164.09994079942197 -3.1805546814635168e-15 -3.1805546814635168e-15 -6.3611093629270335e-15 -152.953052541932 45.950448177664214 -105.1910101133981 5.429963486085441e-07 -1.808300888437451e-07 -11.7350639227759 179.99999177546627 -50.39593532074779 136.9059463335172 -3.1805546814635168e-15 3.1805546814635168e-15 8.827812596100317e-32 -178.58994175607899 -72.74493435653105 -129.97340832554883 89.62535007737708 40.496392443677806 -133.37060755647423 101.47989161485606 -52.421072098661654 148.12921727866654 3.1805546814635168e-15 -6.3611093629270335e-15 1.7655625192200634e-31 -139.42981586153593 -66.16505441105984 153.84466179226797 -91.34557142312052 19.04774390354182 157.73760002467225 -98.73361220131994 -20.77877571347616 -166.73221835346902 6.3611093629270335e-15 -6.3611093629270335e-15 -1.590277340731758e-15
0.6660000085830688 -0.09399999678134918 0.6669999957084656 10.359065052821979 38.42520097091505 -9.382561821821529 -2.328614065791466 1.2386816523910114 0.12405863940281008 1.1655948739545798e-07 -2.0444112225835868e-06 -3.236381696286675 98.46505762325799 11.492268908052258 167.16617132746524 4.722351817332357e-06 3.6373650446853075e-05 0.6159397524047554 -1.0445900978598605e-06 26.159522873259665 19.574001879965888 6.7586786981099735e-15 -7.951386703658792e-16 -7.951386703658791e-16 -113.00418356141039 52.21817712054942 -151.30277597556756 -3.23228953121583e-07 -7.53791857631767e-06 -11.8640553913645 179.99999958183915 -49.76735496194581 135.56761612413104 3.1805546814635168e-15 -2.648343778830095e-31 -9.54166404439055e-15 -174.6899184594554 -77.8112792740516 -127.31592982006308 89.54944290404597 42.04873601862546 -135.052770359163 99.6164265746537 -50.3709966770297 144.96374002098025 3.1805546814635164e-15 -1.5902773407317584e-15 -3.1805546814635164e-15 -127.70722678132906 -68.93949862577223 165.6565661730457 -90.42132812164138 18.66001981192737 160.4318610123053 -97.92913602233372 -20.438521717835783 -165.09935523943918 8.827812596100317e-32 -6.361109362927035e-15 1.5902773407317588e-15
0.6729999780654907 -0.08799999952316284 0.656000018119812 8.365877822762483 31.021645393999652 -9.559962019606536 -1.8901111970550686 2.1756465953617363 0.21815116343185864 2.4651930607354065e-07 -1.0843923512532335e-06 -3.7062502980591905 95.7917570466139 1.8117800103724173 -166.7422878636616 -7.866528238406809e-07 -6.996957010670098e-06 8.064650741930553 -9.247429830451228e-07 14.45649506946504 23.279446651571686 7.951386703658792e-16 3.1805546814635168e-15 -3.1805546814635168e-15 -86.83313600947265 25.276143597770485 170.1852044635629 -9.482016468192467e-07 2.2752071462296985e-06 -18.377972681232084 179.9999991270063 -34.2910134513035 132.84364810922068 8.827812596100317e-32 -3.1805546814635164e-15 3.1805546814635164e-15 -166.19465742180668 -86.01891733905975 -123.43980637677215 88.40021693536583 45.633429947897135 -137.6532874347511 96.97123487065167 -45.43723283410423 140.01673243290256 0.0 6.361109362927033e-15 0.0 -103.43722829792634 -73.09762415995579 -167.36523780246205 -87.67723164881289 21.74004874514558 160.53458458329956 -96.06360003769944 -20.92408120366878 -160.94021832654778 7.951386703658792e-15 -7.951386703658792e-15 4.770832022195276e-15
0.6830000281333923 -0.0820000022649765 0.6380000114440918 7.2531941622779454 23.406417062866 -10.867268390240847 -2.5670134417154897 1.259877441754833 0.14030705703114474 1.0802291283158505e-07 1.6072577660402503e-06 -3.1262399842147492 101.72509123265768 -7.137564328914624 -139.99316210900668 -5.039335809197209e-07 2.3902045697819088e-06 18.662902274973515 -2.040728444265284e-06 -0.6351161581506078 26.834825597194538 0.0 6.3611093629270335e-15 0.0 -87.00376653683409 3.7233125574493378 145.07872313517305 -2.5698403194024294e-06 -3.5311807425676285e-06 -25.96090729409124 179.99999655373423 -23.801077740620872 132.50060821528942 5.517382872562698e-33 -7.95138670365879e-16 7.95138670365879e-16 -3.4250417117048997 -84.93641239011693 33.40601646324522 84.45878188597206 51.266830775917946 -137.7656644037151 93.32781778330616 -41.23772593018814 133.08924083190436 0.0 0.0 1.5902773407317584e-15 -74.61817822658234 -73.14249234258415 -135.05018178798113 -84.62486099054082 24.997618060653068 161.0163190615886 -93.31898832215437 -19.461828418301206 -157.06852240533408 1.3241718894150476e-31 -3.1805546814635164e-15 4.770832022195274e-15
0.6909999847412109 -0.07500000298023224 0.6230000257492065 4.969735742763524 16.41183593761212 -11.847817555371206 -1.4960526862721981 -0.2596916501442184 -0.027448974131334472 1.1453326914934227e-08 2.584063793976656e-07 -2.1009845747639084 110.50721327132575 -7.458896950098697 -115.96947402448897 1.4835612659685312e-06 -4.167307040387958e-06 32.03522981848872 3.2882733926666598e-06 -20.646113440384898 30.799655426048272 6.3611093629270335e-15 1.7655625192200634e-31 3.1805546814635168e-15 -94.71197507675778 -5.598803883954415 119.34966466480832 3.284323456262306e-06 4.773867828326001e-06 -33.57443782218572 -179.99999893847172 -18.255455446597608 134.89623274937196 -6.3611093629270335e-15 -8.827812596100317e-32 1.5902773407317584e-15 4.033675657995574 -76.25530845192154 33.743348540630706 79.04618410206477 57.14767497205084 -135.00602913889193 90.45285943404282 -38.519169440897315 126.81507638088111 0.0 3.975693351829396e-16 0.0 -49.938139563985295 -69.46659971576223 -104.81017032183692 -80.37701772928011 31.21264227530528 158.19108354895408 -89.71836666863418 -21.036770461960838 -149.37562678318847 -1.5902773407317582e-15 -1.5902773407317582e-15 1.5902773407317582e-15
0.6949999928474426 -0.05400000140070915 0.6230000257492065 3.3664461077679957 9.991043019524351 -14.805153923039763 -1.1492890955317525 -4.07423425452969 -0.42641250212311904 1.2608199410261e-09 8.209341126649574e-08 1.8979736851661273 124.8304942310909 -1.5212906304060219 -100.45345372405514 3.932385662144348e-06 2.162066314031744e-06 43.403572417969265 -1.030914868110959e-06 -36.216607499248596 38.14249046040957 0.0 0.0 4.47265502080807e-15 -105.29989577226391 -3.8336018295261414 98.93881501628773 5.754862823133211e-07 2.1260821462235833e-06 -42.08817411292335 179.99999857998634 -14.580979372092806 136.1827544445023 -8.827812596100317e-32 3.180554681463516e-15 3.180554681463516e-15 9.505453013500718 -66.20298126427238 31.413768437976128 67.87863646530094 63.36522258081663 -127.04008622502235 86.0626565980862 -35.18758235034887 119.24143595458315 -3.1805546814635168e-15 3.975693351829396e-16 1.1034765745125397e-32 -32.456870141538424 -62.78530261332723 -78.14475174505405 -72.37384269236289 40.08402687077984 150.87919182423863 -84.84699338240982 -22.86646925449974 -140.04740390282706 1.5902773407317592e-15 -6.3611093629270335e-15 9.54166404439055e-15
